<svg width="1600" height="1200" viewBox="0 0 1600 1200" fill="none" xmlns="http://www.w3.org/2000/svg">
  <rect width="1600" height="1200" fill="#F5EBD8"/>
  <rect x="860" y="0" width="740" height="1200" fill="#D65A31"/>
  <circle cx="1160" cy="380" r="250" fill="#F5EBD8" fill-opacity="0.18"/>
  <circle cx="1160" cy="380" r="210" stroke="#102A43" stroke-opacity="0.15" stroke-width="2"/>
  <path d="M1050 282C1108 258 1188 258 1246 282L1298 756C1304 811 1260 860 1205 860H1091C1036 860 992 811 998 756L1050 282Z" fill="#F5EBD8" stroke="#102A43" stroke-width="8"/>
  <path d="M1034 332C1024 284 1078 246 1119 272L1159 297L1192 261C1230 220 1296 258 1279 310L1232 451L1077 438L1034 332Z" fill="#F7B267"/>
  <circle cx="1107" cy="370" r="26" fill="#C4491D"/>
  <circle cx="1164" cy="352" r="24" fill="#FFD166"/>
  <circle cx="1221" cy="381" r="28" fill="#102A43"/>
  <circle cx="1264" cy="334" r="20" fill="#F4A261"/>
  <circle cx="1126" cy="438" r="24" fill="#F7C59F"/>
  <path d="M1189 423C1230 420 1256 466 1235 500C1206 547 1214 600 1179 602C1146 603 1152 553 1126 520C1094 479 1140 425 1189 423Z" fill="#FFF2D8"/>
  <path d="M1102 931H1395" stroke="#F5EBD8" stroke-opacity="0.4" stroke-width="4"/>
  <text x="120" y="300" fill="#102A43" font-family="Arial, sans-serif" font-size="44" font-weight="700" letter-spacing="10">ISLAMABAD'S NEWEST SHAWARMA RITUAL</text>
  <text x="120" y="540" fill="#102A43" font-family="Arial, sans-serif" font-size="210" font-weight="900">POCKET</text>
  <text x="120" y="640" fill="#D65A31" font-family="Arial, sans-serif" font-size="56" font-weight="700" letter-spacing="6">REAL SHAWARMA, SERVED THE POCKET WAY</text>
  <text x="120" y="742" fill="#102A43" font-family="Arial, sans-serif" font-size="34" font-weight="400">Fresh carved wraps, loaded fries, fast delivery, and a brand built to scale.</text>
  <rect x="120" y="820" width="230" height="72" rx="8" fill="#102A43"/>
  <text x="168" y="867" fill="#F5EBD8" font-family="Arial, sans-serif" font-size="28" font-weight="700">ORDER NOW</text>
  <rect x="372" y="820" width="230" height="72" rx="8" fill="#F5EBD8" stroke="#102A43" stroke-width="2"/>
  <text x="426" y="867" fill="#102A43" font-family="Arial, sans-serif" font-size="28" font-weight="700">VIEW MENU</text>
  <text x="120" y="1030" fill="#102A43" font-family="Arial, sans-serif" font-size="32" font-weight="700">G-11 MARKAZ ISLAMABAD</text>
  <text x="120" y="1080" fill="#102A43" fill-opacity="0.7" font-family="Arial, sans-serif" font-size="28" font-weight="400">Shop #17, Al Ghaffar Mall</text>
</svg>

